<svg width="24" height="24" viewBox="0 0 24 24" fill="none" xmlns="http://www.w3.org/2000/svg">
	<defs>
		<g id="search" width="24" height="24" viewBox="0 0 24 24" fill="none" xmlns="http://www.w3.org/2000/svg">
			<path d="M11.5 21C16.7467 21 21 16.7467 21 11.5C21 6.25329 16.7467 2 11.5 2C6.25329 2 2 6.25329 2 11.5C2 16.7467 6.25329 21 11.5 21Z" stroke="currentColor" stroke-width="1.5" stroke-linecap="round" stroke-linejoin="round" />
			<path d="M22 22L20 20" stroke="currentColor" stroke-width="1.5" stroke-linecap="round" stroke-linejoin="round" />
		</g>
		<g id="notification" width="24" height="24" viewBox="0 0 24 24" fill="none" xmlns="http://www.w3.org/2000/svg">
			<path d="M15 18V18.75C15 19.5456 14.6839 20.3087 14.1213 20.8713C13.5587 21.4339 12.7956 21.75 12 21.75C11.2043 21.75 10.4413 21.4339 9.87867 20.8713C9.31606 20.3087 8.99999 19.5456 8.99999 18.75V18M20.0475 16.4733C18.8437 15 17.9939 14.25 17.9939 10.1883C17.9939 6.46875 16.0945 5.14359 14.5312 4.5C14.3236 4.41469 14.1281 4.21875 14.0648 4.00547C13.7906 3.07219 13.0219 2.25 12 2.25C10.9781 2.25 10.2089 3.07266 9.93749 4.00641C9.87421 4.22203 9.67874 4.41469 9.47108 4.5C7.90593 5.14453 6.00842 6.465 6.00842 10.1883C6.00608 14.25 5.15624 15 3.95249 16.4733C3.45374 17.0836 3.89061 18 4.76296 18H19.2417C20.1094 18 20.5434 17.0808 20.0475 16.4733Z" stroke="currentColor" stroke-width="2" stroke-linecap="round" stroke-linejoin="round" />
		</g>
		<g id="caret-down" width="20" height="20" viewBox="0 0 20 20" fill="none" xmlns="http://www.w3.org/2000/svg">
			<path d="M16.9132 8.1633L10.6632 14.4133C10.5762 14.5007 10.4727 14.57 10.3587 14.6174C10.2447 14.6647 10.1226 14.689 9.99918 14.689C9.8758 14.689 9.75362 14.6647 9.63967 14.6174C9.52571 14.57 9.42222 14.5007 9.33512 14.4133L3.08512 8.1633C2.909 7.98718 2.81006 7.74831 2.81006 7.49923C2.81006 7.25016 2.909 7.01129 3.08512 6.83517C3.26124 6.65905 3.50011 6.56011 3.74918 6.56011C3.99826 6.56011 4.23713 6.65905 4.41325 6.83517L9.99997 12.4219L15.5867 6.83439C15.7628 6.65827 16.0017 6.55933 16.2507 6.55933C16.4998 6.55933 16.7387 6.65827 16.9148 6.83439C17.0909 7.01051 17.1899 7.24938 17.1899 7.49845C17.1899 7.74752 17.0909 7.98639 16.9148 8.16252L16.9132 8.1633Z" fill="currentColor" />
		</g>
		<g id="book" width="21" height="20" viewBox="0 0 21 20" fill="none" xmlns="http://www.w3.org/2000/svg">
			<g clip-path="url(#clip0_3204_317)">
				<path d="M10.5 6.25C11.125 3.78282 13.4856 2.52305 18.625 2.5C18.7072 2.49969 18.7886 2.51565 18.8645 2.54695C18.9405 2.57825 19.0095 2.62427 19.0676 2.68237C19.1257 2.74047 19.1718 2.80949 19.2031 2.88546C19.2344 2.96143 19.2503 3.04284 19.25 3.125V14.375C19.25 14.5408 19.1842 14.6997 19.0669 14.8169C18.9497 14.9342 18.7908 15 18.625 15C13.625 15 11.6934 16.0082 10.5 17.5M10.5 6.25C9.875 3.78282 7.51446 2.52305 2.375 2.5C2.29284 2.49969 2.21143 2.51565 2.13546 2.54695C2.05949 2.57825 1.99047 2.62427 1.93237 2.68237C1.87427 2.74047 1.82825 2.80949 1.79695 2.88546C1.76565 2.96143 1.74969 3.04284 1.75 3.125V14.2996C1.75 14.6856 1.98907 15 2.375 15C7.375 15 9.31368 16.0156 10.5 17.5M10.5 6.25V17.5" stroke="#808591" stroke-width="2" stroke-linecap="round" stroke-linejoin="round" />
			</g>
			<defs>
				<clipPath id="clip0_3204_317">
					<rect width="20" height="20" fill="white" transform="translate(0.5)" />
				</clipPath>
			</defs>
		</g>
		<g id="speaker" width="20" height="20" viewBox="0 0 20 20" fill="none" xmlns="http://www.w3.org/2000/svg">
			<path d="M8.47441 6.01818C8.31607 6.87786 8.16573 8.52289 8.16573 9.39721C8.16573 10.2715 8.20549 11.9448 8.47441 12.7762M8.47441 6.01818L10.2309 4.4792C12.4155 2.56508 13.5078 1.60802 14.4409 1.79389C14.7312 1.85171 15.0043 1.97551 15.239 2.15571C15.9938 2.73507 15.9938 4.18734 15.9938 7.09188V11.6824C15.9938 14.5442 15.9938 15.9752 15.2461 16.5546C15.0135 16.7349 14.7422 16.8597 14.4541 16.9193C13.5276 17.1104 12.4414 16.1805 10.2688 14.3208C9.27085 13.4665 8.52922 12.8295 8.47441 12.7762M8.47441 6.01818C8.09009 5.99129 6.36351 5.99076 4.70243 5.9972C3.32597 6.00254 2.63775 6.00521 2.14459 6.34785C1.95436 6.48003 1.78808 6.64695 1.65665 6.8377C1.31592 7.33219 1.31592 8.02309 1.31592 9.40492C1.31592 10.7932 1.31592 11.4873 1.65871 11.9828C1.79095 12.1739 1.95811 12.341 2.14937 12.473C2.6452 12.8153 3.33683 12.8145 4.72007 12.8132C6.37572 12.8115 8.09144 12.803 8.47441 12.7762M3.27325 12.8092L3.25198 17.7593C3.24854 18.5597 3.89661 19.2102 4.69698 19.2098C5.49433 19.2094 6.14048 18.5629 6.14048 17.7655V12.8097M17.9508 5.46453C18.9293 8.41402 18.9293 10.3804 17.9508 13.3298" stroke="#020B23" stroke-opacity="0.5" stroke-width="1.5" stroke-linecap="round" stroke-linejoin="round" />
		</g>
		<g id="prayer" width="21" height="20" viewBox="0 0 21 20" fill="none" xmlns="http://www.w3.org/2000/svg">
			<path d="M9.93 7.66996C9.97 7.77996 10 7.87996 10 7.99996V13.22C10 13.72 9.81 14.2 9.47 14.57L6.68 17.62L3.28 14.22L4.5 13L7.3 0.859956C7.36104 0.592858 7.51837 0.357623 7.74192 0.199213C7.96547 0.0408038 8.23955 -0.0296684 8.51178 0.00126704C8.78401 0.0322025 9.0353 0.162376 9.2176 0.366905C9.39991 0.571434 9.50045 0.835973 9.5 1.10996V6.06996C9.33696 6.0256 9.16895 6.00207 9 5.99996C7.9 5.99996 7 6.89996 7 7.99996V11C7 11.28 7.22 11.5 7.5 11.5C7.78 11.5 8 11.28 8 11V7.99996C8 7.44996 8.45 6.99996 9 6.99996C9.19 6.99996 9.35 7.06996 9.5 7.15996C9.62 7.22996 9.71 7.31996 9.8 7.41996C9.83 7.45996 9.86 7.49996 9.88 7.54996C9.9 7.58996 9.92 7.62996 9.93 7.66996ZM0.5 17L4.5 20L5.67 18.73L2.22 15.28L0.5 17ZM16.5 13L13.7 0.859956C13.639 0.592858 13.4816 0.357623 13.2581 0.199213C13.0345 0.0408038 12.7604 -0.0296684 12.4882 0.00126704C12.216 0.0322025 11.9647 0.162376 11.7824 0.366905C11.6001 0.571434 11.4996 0.835973 11.5 1.10996V6.06996C11.66 6.02996 11.83 5.99996 12 5.99996C13.1 5.99996 14 6.89996 14 7.99996V11C14 11.28 13.78 11.5 13.5 11.5C13.22 11.5 13 11.28 13 11V7.99996C13 7.44996 12.55 6.99996 12 6.99996C11.81 6.99996 11.65 7.06996 11.5 7.15996C11.38 7.22996 11.29 7.31996 11.21 7.41996C11.18 7.45996 11.14 7.49996 11.12 7.54996C11.1 7.58996 11.08 7.62996 11.07 7.66996C11.03 7.77996 11 7.87996 11 7.99996V13.22C11 13.72 11.19 14.2 11.53 14.57L14.32 17.62L17.72 14.22L16.5 13ZM18.78 15.28L15.33 18.73L16.5 20L20.5 17L18.78 15.28Z" fill="#2967B3" />
		</g>
		<g id="completed" width="25" height="24" viewBox="0 0 25 24" fill="none" xmlns="http://www.w3.org/2000/svg">
			<rect x="0.5" width="24" height="24" rx="12" fill="#F2DF7C" />
			<path d="M17.6559 9.65572L11.3402 15.9715C11.2851 16.0267 11.2198 16.0705 11.1478 16.1004C11.0758 16.1303 10.9987 16.1457 10.9207 16.1457C10.8428 16.1457 10.7657 16.1303 10.6937 16.1004C10.6217 16.0705 10.5563 16.0267 10.5013 15.9715L7.73818 13.2084C7.6831 13.1533 7.63941 13.0879 7.6096 13.0159C7.57979 12.944 7.56445 12.8668 7.56445 12.7889C7.56445 12.7111 7.57979 12.6339 7.6096 12.562C7.63941 12.49 7.6831 12.4246 7.73818 12.3695C7.79325 12.3145 7.85864 12.2708 7.9306 12.241C8.00257 12.2112 8.07969 12.1958 8.15759 12.1958C8.23548 12.1958 8.31261 12.2112 8.38457 12.241C8.45653 12.2708 8.52192 12.3145 8.57699 12.3695L10.9212 14.7138L16.8181 8.81789C16.9293 8.70666 17.0802 8.64417 17.2375 8.64417C17.3948 8.64417 17.5457 8.70666 17.6569 8.81789C17.7682 8.92912 17.8307 9.07999 17.8307 9.2373C17.8307 9.39461 17.7682 9.54547 17.6569 9.65671L17.6559 9.65572Z" fill="white" />
		</g>
		<g id="ellipses" width="25" height="26" viewBox="0 0 25 26" fill="none" xmlns="http://www.w3.org/2000/svg">
			<path d="M18.4854 11.5524C18.7821 11.5548 19.0713 11.6452 19.3167 11.812C19.562 11.9788 19.7523 12.2147 19.8636 12.4897C19.9748 12.7647 20.0021 13.0666 19.9418 13.357C19.8815 13.6475 19.7365 13.9136 19.525 14.1217C19.3135 14.3297 19.045 14.4704 18.7536 14.5259C18.4622 14.5813 18.1608 14.5492 17.8877 14.4334C17.6145 14.3176 17.3818 14.1234 17.2191 13.8754C17.0563 13.6274 16.9707 13.3366 16.9731 13.04C16.9764 12.6422 17.1376 12.262 17.4212 11.983C17.7048 11.704 18.0876 11.5491 18.4854 11.5524ZM13.5982 13.0122C13.6007 12.7156 13.5151 12.4249 13.3523 12.1768C13.1895 11.9288 12.9568 11.7346 12.6837 11.6189C12.4105 11.5031 12.1092 11.4709 11.8178 11.5264C11.5263 11.5819 11.2579 11.7225 11.0464 11.9306C10.8349 12.1386 10.6898 12.4047 10.6296 12.6952C10.5693 12.9857 10.5965 13.2875 10.7078 13.5625C10.8191 13.8375 11.0094 14.0734 11.2547 14.2402C11.5 14.4071 11.7893 14.4974 12.086 14.4999C12.4838 14.5031 12.8666 14.3482 13.1502 14.0693C13.4338 13.7903 13.595 13.4101 13.5982 13.0122ZM7.22345 12.9598C7.22589 12.6632 7.1403 12.3725 6.97751 12.1244C6.81472 11.8764 6.58205 11.6822 6.3089 11.5665C6.03575 11.4507 5.73441 11.4185 5.44297 11.474C5.15153 11.5295 4.88309 11.6701 4.6716 11.8782C4.4601 12.0862 4.31505 12.3523 4.25478 12.6428C4.19451 12.9333 4.22174 13.2351 4.33301 13.5101C4.44429 13.7851 4.63461 14.021 4.87992 14.1878C5.12523 14.3547 5.41451 14.445 5.71117 14.4475C6.10898 14.4507 6.4918 14.2958 6.77541 14.0169C7.05901 13.7379 7.22018 13.3577 7.22345 12.9598Z" fill="#020B23" />
		</g>
		<g id="like" width="20" height="20" viewBox="0 0 20 20" xmlns="http://www.w3.org/2000/svg">
			<path d="M1.875 8.85421V15.7292C1.875 16.362 2.38801 16.875 3.02083 16.875C3.65366 16.875 4.16667 16.362 4.16667 15.7292V8.85421C4.16667 8.22138 3.65366 7.70837 3.02083 7.70837C2.38801 7.70837 1.875 8.22138 1.875 8.85421Z" stroke-width="1" />
			<path d="M12.7078 6.88063C13.0225 5.78067 13.0218 4.83466 12.7055 3.84195C12.5193 3.25742 11.9493 2.91663 11.3482 2.91663C10.9272 2.91663 10.5268 3.09684 10.3569 3.49067C10.0241 4.26217 9.46217 5.84859 8.64308 6.68629C7.42576 7.93131 6.53161 8.65496 5 9.18471V15.1036L5.62448 15.6921C6.08546 16.1265 6.31595 16.3437 6.59837 16.4979C6.68853 16.547 6.79256 16.5955 6.88828 16.6328C7.18806 16.7497 7.48763 16.7845 8.08677 16.8541C8.96398 16.9561 10.0649 17.0663 10.8333 17.0813C11.4113 17.0926 12.0917 17.0545 12.7488 16.9976C13.8196 16.9049 14.355 16.8585 14.8544 16.5554C15.008 16.4622 15.1784 16.3299 15.3068 16.2041C15.7241 15.7953 15.9175 15.2425 16.3042 14.137L17.2995 11.2918C17.8204 9.80263 16.7837 8.22552 15.2102 8.11306L13.5567 7.99488C12.9959 7.95481 12.5976 7.43186 12.7078 6.88063Z" stroke-width="1" />
		</g>
		<g id="comment" width="20" height="20" viewBox="0 0 20 20" fill="none" xmlns="http://www.w3.org/2000/svg">
			<path d="M10.3125 1.5625C8.15831 1.56477 6.09301 2.42153 4.56977 3.94477C3.04653 5.46801 2.18977 7.53331 2.1875 9.6875V16.2758C2.18791 16.6832 2.34995 17.0738 2.63805 17.3619C2.92615 17.65 3.31678 17.8121 3.72422 17.8125H10.3125C12.4674 17.8125 14.534 16.9565 16.0577 15.4327C17.5815 13.909 18.4375 11.8424 18.4375 9.6875C18.4375 7.53262 17.5815 5.46599 16.0577 3.94226C14.534 2.41852 12.4674 1.5625 10.3125 1.5625ZM10.3125 15.9375H4.0625V9.6875C4.0625 8.45137 4.42906 7.24299 5.11581 6.21519C5.80257 5.18738 6.77869 4.3863 7.92073 3.91325C9.06277 3.44021 10.3194 3.31643 11.5318 3.55759C12.7442 3.79875 13.8578 4.394 14.7319 5.26808C15.606 6.14216 16.2013 7.2558 16.4424 8.46819C16.6836 9.68057 16.5598 10.9372 16.0867 12.0793C15.6137 13.2213 14.8126 14.1974 13.7848 14.8842C12.757 15.5709 11.5486 15.9375 10.3125 15.9375ZM9.6875 10C9.6875 10.2472 9.61419 10.4889 9.47684 10.6945C9.33949 10.9 9.14426 11.0602 8.91585 11.1548C8.68745 11.2495 8.43611 11.2742 8.19364 11.226C7.95116 11.1778 7.72843 11.0587 7.55362 10.8839C7.3788 10.7091 7.25975 10.4863 7.21152 10.2439C7.16329 10.0014 7.18804 9.75005 7.28265 9.52165C7.37726 9.29324 7.53748 9.09801 7.74304 8.96066C7.9486 8.82331 8.19027 8.75 8.4375 8.75C8.76902 8.75 9.08696 8.8817 9.32138 9.11612C9.5558 9.35054 9.6875 9.66848 9.6875 10ZM13.4375 10C13.4375 10.2472 13.3642 10.4889 13.2268 10.6945C13.0895 10.9 12.8943 11.0602 12.6659 11.1548C12.4374 11.2495 12.1861 11.2742 11.9436 11.226C11.7012 11.1778 11.4784 11.0587 11.3036 10.8839C11.1288 10.7091 11.0097 10.4863 10.9615 10.2439C10.9133 10.0014 10.938 9.75005 11.0327 9.52165C11.1273 9.29324 11.2875 9.09801 11.493 8.96066C11.6986 8.82331 11.9403 8.75 12.1875 8.75C12.519 8.75 12.837 8.8817 13.0714 9.11612C13.3058 9.35054 13.4375 9.66848 13.4375 10Z" fill="#020B23" />
		</g>
		<g id="praying" width="20" height="20" viewBox="0 0 20 20" fill="none" xmlns="http://www.w3.org/2000/svg">
			<path d="M18.3843 14.0625L15.5531 11.2305L12.7046 1.83282C12.6237 1.56522 12.478 1.32172 12.2805 1.12389C12.0829 0.926049 11.8396 0.779985 11.5722 0.69863C11.3047 0.617276 11.0213 0.603143 10.747 0.657483C10.4728 0.711823 10.2162 0.832959 9.99996 1.01016C9.78372 0.832959 9.52711 0.711823 9.25287 0.657483C8.97863 0.603143 8.69522 0.617276 8.42775 0.69863C8.16028 0.779985 7.917 0.926049 7.71946 1.12389C7.52192 1.32172 7.37622 1.56522 7.29527 1.83282L4.44683 11.2313L1.61558 14.0625C1.38134 14.2969 1.24976 14.6147 1.24976 14.9461C1.24976 15.2775 1.38134 15.5953 1.61558 15.8297L4.16949 18.3836C4.28557 18.4997 4.42338 18.5918 4.57505 18.6546C4.72673 18.7175 4.8893 18.7498 5.05347 18.7498C5.21765 18.7498 5.38022 18.7175 5.53189 18.6546C5.68357 18.5918 5.82138 18.4997 5.93746 18.3836L9.70933 14.6094C9.81384 14.5045 9.91094 14.3925 9.99996 14.2742C10.089 14.3925 10.1861 14.5045 10.2906 14.6094L14.0625 18.3844C14.1785 18.5005 14.3163 18.5926 14.468 18.6554C14.6197 18.7183 14.7823 18.7506 14.9464 18.7506C15.1106 18.7506 15.2732 18.7183 15.4249 18.6554C15.5765 18.5926 15.7143 18.5005 15.8304 18.3844L18.3843 15.8305C18.5004 15.7144 18.5925 15.5766 18.6554 15.4249C18.7182 15.2732 18.7505 15.1107 18.7505 14.9465C18.7505 14.7823 18.7182 14.6197 18.6554 14.4681C18.5925 14.3164 18.5004 14.1786 18.3843 14.0625ZM9.37496 12.4023C9.37621 12.6489 9.32851 12.8932 9.23464 13.1212C9.14076 13.3492 9.00257 13.5563 8.82808 13.7305L6.92808 15.625L4.37496 13.0719L5.44136 12.0047C5.51414 11.9319 5.56781 11.8423 5.59761 11.7438L8.48824 2.19532C8.51756 2.08907 8.58473 1.99721 8.67709 1.93705C8.76945 1.8769 8.88062 1.8526 8.98965 1.86874C9.09869 1.88488 9.19805 1.94034 9.26902 2.02467C9.34 2.109 9.37768 2.21638 9.37496 2.32657V12.4023ZM13.0812 15.6352L11.1718 13.7281C10.9973 13.5539 10.8592 13.3469 10.7653 13.1189C10.6714 12.8909 10.6237 12.6466 10.625 12.4V2.32188C10.625 2.21363 10.6639 2.109 10.7346 2.02704C10.8053 1.94508 10.9031 1.89124 11.0102 1.87534C11.1172 1.85943 11.2265 1.88252 11.3179 1.94039C11.4094 1.99826 11.4771 2.08707 11.5086 2.19063L14.3992 11.7391C14.429 11.8376 14.4827 11.9272 14.5554 12L15.6875 13.132L13.0812 15.6352Z" fill="#020B23" />
		</g>
		<g id="share" width="20" height="20" viewBox="0 0 20 20" fill="none" xmlns="http://www.w3.org/2000/svg">
			<path d="M18.4563 8.41877L12.2063 2.16877C12.1408 2.10329 12.0573 2.05871 11.9664 2.04066C11.8755 2.02261 11.7814 2.03189 11.6958 2.06734C11.6102 2.10278 11.537 2.1628 11.4855 2.23981C11.4339 2.31682 11.4064 2.40737 11.4063 2.50002V5.79689C7.15008 6.07736 2.00086 10.0938 1.4118 15.2235C1.39267 15.3868 1.42557 15.552 1.50582 15.6956C1.58607 15.8391 1.70958 15.9537 1.85874 16.0229C2.0079 16.0922 2.17512 16.1126 2.33657 16.0813C2.49801 16.0499 2.64546 15.9685 2.75789 15.8485C3.63758 14.9102 6.79696 11.9219 11.4063 11.7289V15C11.4064 15.0927 11.4339 15.1832 11.4855 15.2602C11.537 15.3372 11.6102 15.3973 11.6958 15.4327C11.7814 15.4681 11.8755 15.4774 11.9664 15.4594C12.0573 15.4413 12.1408 15.3967 12.2063 15.3313L18.4563 9.08127C18.5441 8.99337 18.5934 8.87423 18.5934 8.75002C18.5934 8.6258 18.5441 8.50666 18.4563 8.41877ZM12.3438 13.8688V11.25C12.3438 11.1257 12.2944 11.0065 12.2065 10.9186C12.1186 10.8307 11.9994 10.7813 11.8751 10.7813C9.70867 10.7813 7.59696 11.3477 5.60008 12.4649C4.4362 13.1187 3.36411 13.9239 2.4118 14.8594C2.77899 12.7844 3.9868 10.7969 5.8493 9.2133C7.69305 7.65158 9.94461 6.71877 11.8751 6.71877C11.9994 6.71877 12.1186 6.66938 12.2065 6.58147C12.2944 6.49356 12.3438 6.37434 12.3438 6.25002V3.63205L17.4618 8.75002L12.3438 13.8688Z" fill="black" />
		</g>
		<g id="pencil" width="18" height="18" viewBox="0 0 18 18" fill="none" xmlns="http://www.w3.org/2000/svg">
			<path d="M15.2698 4.9977C15.9288 4.33869 15.9288 3.27024 15.2698 2.61125C14.6107 1.95222 13.5422 1.95224 12.8833 2.61129L11.7444 3.75022L14.1309 6.13671L15.2698 4.9977Z" fill="white" />
			<path d="M2.46752 14.05C1.87989 15.1304 1.58609 15.6706 1.74635 15.9445C1.79525 16.0282 1.86492 16.0977 1.94859 16.1465C2.22279 16.3063 2.76255 16.0117 3.84208 15.4225L6.06562 14.2087L13.3408 6.93336L10.9543 4.54688L3.67914 11.8222L2.46752 14.05Z" fill="white" />
		</g>
		<g id="simple-check" width="20" height="20" viewBox="0 0 20 20" fill="none" xmlns="http://www.w3.org/2000/svg">
			<g clip-path="url(#clip0_3204_2409)">
				<path d="M10 0C4.47719 0 0 4.47719 0 10C0 15.5231 4.47719 20 10 20C15.5231 20 20 15.5231 20 10C20 4.47719 15.5231 0 10 0ZM10 18.7697C5.17531 18.7697 1.25 14.8247 1.25 9.99996C1.25 5.17527 5.17531 1.24996 10 1.24996C14.8247 1.24996 18.75 5.17529 18.75 9.99996C18.75 14.8246 14.8247 18.7697 10 18.7697ZM13.9909 6.34094L8.12373 12.245L5.48154 9.60281C5.23748 9.35875 4.84186 9.35875 4.59748 9.60281C4.35342 9.84688 4.35342 10.2425 4.59748 10.4866L7.69092 13.5803C7.93498 13.8241 8.33061 13.8241 8.57498 13.5803C8.60311 13.5522 8.62719 13.5215 8.64906 13.4897L14.8753 7.22498C15.1191 6.98092 15.1191 6.58529 14.8753 6.34094C14.6309 6.09688 14.2353 6.09688 13.9909 6.34094Z" fill="#020B23" />
			</g>
			<defs>
				<clipPath id="clip0_3204_2409">
					<rect width="20" height="20" fill="white" />
				</clipPath>
			</defs>
		</g>
		<g id="profile" width="24" height="24" viewBox="0 0 24 24" fill="none" xmlns="http://www.w3.org/2000/svg">
			<path d="M4 18C4 16.9391 4.42143 15.9217 5.17157 15.1716C5.92172 14.4214 6.93913 14 8 14H16C17.0609 14 18.0783 14.4214 18.8284 15.1716C19.5786 15.9217 20 16.9391 20 18C20 18.5304 19.7893 19.0391 19.4142 19.4142C19.0391 19.7893 18.5304 20 18 20H6C5.46957 20 4.96086 19.7893 4.58579 19.4142C4.21071 19.0391 4 18.5304 4 18Z" stroke="currentColor" stroke-width="2" stroke-linejoin="round" />
			<path d="M12 10C13.6569 10 15 8.65685 15 7C15 5.34315 13.6569 4 12 4C10.3431 4 9 5.34315 9 7C9 8.65685 10.3431 10 12 10Z" stroke="currentColor" stroke-width="2" />
		</g>
		<g id="donate-heart" width="24" height="24" viewBox="0 0 24 24" fill="none" xmlns="http://www.w3.org/2000/svg">
			<path d="M4 21H13.62C14.1971 21.0003 14.7674 20.8756 15.2916 20.6344C15.8159 20.3933 16.2817 20.0414 16.657 19.603L21.759 13.651C21.8658 13.5266 21.9404 13.3778 21.9762 13.2178C22.012 13.0577 22.0079 12.8913 21.9642 12.7333C21.9206 12.5752 21.8387 12.4303 21.7258 12.3113C21.6129 12.1923 21.4726 12.1029 21.317 12.051L19.349 11.395C18.8734 11.2404 18.3669 11.2054 17.8745 11.2932C17.3821 11.3809 16.919 11.5886 16.526 11.898L13.341 14.445L12.724 13.21C12.3935 12.5443 11.8831 11.9844 11.2507 11.5938C10.6184 11.2032 9.88926 10.9975 9.146 11H4C2.897 11 2 11.897 2 13V19C2 20.103 2.897 21 4 21ZM4 13H9.146C9.909 13 10.594 13.423 10.935 14.105L11.382 15H7V17H13.014C13.1679 16.998 13.3191 16.9603 13.456 16.89L13.459 16.889L13.463 16.887H13.466L13.468 16.886H13.472L13.473 16.885C13.482 16.888 13.476 16.884 13.476 16.884C13.486 16.884 13.478 16.883 13.478 16.883H13.479L13.481 16.882L13.484 16.881L13.486 16.88L13.488 16.879L13.491 16.878L13.493 16.877C13.496 16.877 13.494 16.876 13.495 16.876L13.498 16.874L13.5 16.873L13.502 16.872L13.505 16.871L13.507 16.87H13.508L13.51 16.869L13.513 16.868L13.515 16.867C13.524 16.866 13.518 16.866 13.518 16.866L13.52 16.865C13.5585 16.8418 13.5953 16.8157 13.63 16.787L17.776 13.47C18.038 13.262 18.399 13.197 18.716 13.303L19.273 13.489L15.14 18.312C14.9499 18.5279 14.716 18.7009 14.454 18.8195C14.1919 18.9381 13.9077 18.9996 13.62 19H4V13ZM16 2.00001H15.983C15.82 2.00201 14.977 2.03901 14 2.70501C13.049 2.05701 12.226 2.00501 12.032 2.00101L12.002 2.00001H11.998C11.197 2.00001 10.443 2.31301 9.879 2.87801C9.313 3.44501 9 4.19801 9 5.00001C9 5.80201 9.313 6.55501 9.861 7.10401L13.275 10.69C13.3689 10.7875 13.4816 10.8651 13.6062 10.918C13.7308 10.9709 13.8648 10.9982 14.0002 10.9981C14.1356 10.998 14.2696 10.9706 14.3941 10.9175C14.5187 10.8643 14.6312 10.7866 14.725 10.689L18.121 7.12101C18.688 6.55501 19 5.80201 19 5.00001C19 4.19801 18.687 3.44501 18.122 2.87901C17.8443 2.59955 17.514 2.37797 17.1501 2.22708C16.7862 2.0762 16.3959 1.99902 16.002 2.00001H16ZM17 5.00001C17 5.26701 16.896 5.51801 16.689 5.72501L14 8.55001L11.293 5.70701C11.104 5.51801 11 5.26701 11 5.00001C11 4.73301 11.104 4.48201 11.294 4.29201C11.4748 4.10807 11.7211 4.0031 11.979 4.00001C12.004 4.00101 12.481 4.03201 13.046 4.48501C13.127 4.55001 13.209 4.62401 13.293 4.70701L14 5.41401L14.707 4.70701C14.791 4.62401 14.873 4.55001 14.954 4.48501C15.483 4.06001 15.93 4.00701 16.006 4.00101C16.1363 4.00098 16.2654 4.02678 16.3857 4.07689C16.506 4.12701 16.6152 4.20046 16.707 4.29301C16.896 4.48201 17 4.73301 17 5.00001Z" fill="currentColor" />
		</g>
		<g id="group" width="24" height="24" viewBox="0 0 24 24" fill="none" xmlns="http://www.w3.org/2000/svg">
			<path d="M1 20V17.2C1 16.6333 1.146 16.1127 1.438 15.638C1.73 15.1633 2.11733 14.8007 2.6 14.55C3.63333 14.0333 4.68333 13.646 5.75 13.388C6.81667 13.13 7.9 13.0007 9 13C10.1 12.9993 11.1833 13.1287 12.25 13.388C13.3167 13.6473 14.3667 14.0347 15.4 14.55C15.8833 14.8 16.271 15.1627 16.563 15.638C16.855 16.1133 17.0007 16.634 17 17.2V20H1ZM19 20V17C19 16.2667 18.796 15.5623 18.388 14.887C17.98 14.2117 17.4007 13.6327 16.65 13.15C17.5 13.25 18.3 13.421 19.05 13.663C19.8 13.905 20.5 14.2007 21.15 14.55C21.75 14.8833 22.2083 15.254 22.525 15.662C22.8417 16.07 23 16.516 23 17V20H19ZM9 12C7.9 12 6.95833 11.6083 6.175 10.825C5.39167 10.0417 5 9.1 5 8C5 6.9 5.39167 5.95833 6.175 5.175C6.95833 4.39166 7.9 4 9 4C10.1 4 11.0417 4.39166 11.825 5.175C12.6083 5.95833 13 6.9 13 8C13 9.1 12.6083 10.0417 11.825 10.825C11.0417 11.6083 10.1 12 9 12ZM19 8C19 9.1 18.6083 10.0417 17.825 10.825C17.0417 11.6083 16.1 12 15 12C14.8167 12 14.5833 11.9793 14.3 11.938C14.0167 11.8967 13.7833 11.8507 13.6 11.8C14.05 11.2667 14.396 10.675 14.638 10.025C14.88 9.37499 15.0007 8.7 15 8C14.9993 7.3 14.8787 6.62499 14.638 5.975C14.3973 5.325 14.0513 4.73333 13.6 4.19999C13.8333 4.11666 14.0667 4.06233 14.3 4.037C14.5333 4.01166 14.7667 3.99933 15 4C16.1 4 17.0417 4.39166 17.825 5.175C18.6083 5.95833 19 6.9 19 8ZM3 18H15V17.2C15 17.0167 14.9543 16.85 14.863 16.7C14.7717 16.55 14.6507 16.4333 14.5 16.35C13.6 15.9 12.6917 15.5627 11.775 15.338C10.8583 15.1133 9.93333 15.0007 9 15C8.06667 14.9993 7.14167 15.112 6.225 15.338C5.30833 15.564 4.4 15.9013 3.5 16.35C3.35 16.4333 3.229 16.55 3.137 16.7C3.045 16.85 2.99933 17.0167 3 17.2V18ZM9 10C9.55 10 10.021 9.80433 10.413 9.413C10.805 9.02166 11.0007 8.55066 11 8C10.9993 7.44933 10.8037 6.97866 10.413 6.588C10.0223 6.19733 9.55133 6.00133 9 6C8.44867 5.99866 7.978 6.19466 7.588 6.588C7.198 6.98133 7.002 7.452 7 8C6.998 8.548 7.194 9.019 7.588 9.413C7.982 9.807 8.45267 10.0027 9 10Z" fill="currentColor" />
		</g>
		<g id="envelope" width="20" height="20" viewBox="0 0 20 20" fill="none" xmlns="http://www.w3.org/2000/svg">
			<path d="M16.5625 3.75H3.4375C2.57456 3.75 1.875 4.44956 1.875 5.3125V14.6875C1.875 15.5504 2.57456 16.25 3.4375 16.25H16.5625C17.4254 16.25 18.125 15.5504 18.125 14.6875V5.3125C18.125 4.44956 17.4254 3.75 16.5625 3.75Z" stroke="#020B23" stroke-linecap="round" stroke-linejoin="round" />
			<path d="M4.375 6.25L10 10.625L15.625 6.25" stroke="#020B23" stroke-linecap="round" stroke-linejoin="round" />
		</g>
		<g id="group-fill" width="20" height="20" viewBox="0 0 20 20" fill="none" xmlns="http://www.w3.org/2000/svg">
			<path d="M13.3334 14.1666V15.8333H1.66675V14.1666C1.66675 14.1666 1.66675 10.8333 7.50008 10.8333C13.3334 10.8333 13.3334 14.1666 13.3334 14.1666ZM10.4167 6.24995C10.4167 5.67309 10.2457 5.10918 9.9252 4.62954C9.60471 4.14989 9.14919 3.77606 8.61624 3.5553C8.08329 3.33455 7.49685 3.27679 6.93107 3.38933C6.36529 3.50187 5.84559 3.77965 5.43769 4.18755C5.02978 4.59546 4.752 5.11516 4.63946 5.68094C4.52692 6.24671 4.58468 6.83316 4.80543 7.36611C5.02619 7.89906 5.40002 8.35458 5.87967 8.67507C6.35931 8.99556 6.92322 9.16662 7.50008 9.16662C8.27363 9.16662 9.01549 8.85932 9.56248 8.31234C10.1095 7.76536 10.4167 7.0235 10.4167 6.24995ZM13.2834 10.8333C13.7957 11.2297 14.2149 11.7336 14.5115 12.3095C14.8081 12.8854 14.9748 13.5193 15.0001 14.1666V15.8333H18.3334V14.1666C18.3334 14.1666 18.3334 11.1416 13.2834 10.8333ZM12.5001 3.33328C11.9266 3.33062 11.3657 3.50206 10.8917 3.82495C11.3979 4.53223 11.6701 5.38019 11.6701 6.24995C11.6701 7.11971 11.3979 7.96767 10.8917 8.67495C11.3657 8.99784 11.9266 9.16928 12.5001 9.16662C13.2736 9.16662 14.0155 8.85932 14.5625 8.31234C15.1095 7.76536 15.4167 7.0235 15.4167 6.24995C15.4167 5.4764 15.1095 4.73454 14.5625 4.18755C14.0155 3.64057 13.2736 3.33328 12.5001 3.33328Z" fill="#020B23" />
		</g>
		<g id="book-fill" width="20" height="20" viewBox="0 0 20 20" fill="none" xmlns="http://www.w3.org/2000/svg">
			<path d="M8.38415 2.77494C7.02927 2.12807 5.13552 1.81119 2.60015 1.79994C2.36104 1.79669 2.12662 1.86642 1.92815 1.99982C1.76524 2.10993 1.63189 2.25838 1.53982 2.43212C1.44776 2.60586 1.39979 2.79957 1.40015 2.99619V13.7249C1.40015 14.4502 1.91615 14.9973 2.60015 14.9973C5.26527 14.9973 7.93865 15.2463 9.5399 16.7598C9.5618 16.7806 9.58934 16.7945 9.61908 16.7998C9.64882 16.8051 9.67945 16.8015 9.70718 16.7895C9.73491 16.7775 9.7585 16.7577 9.77503 16.7324C9.79156 16.7071 9.80029 16.6775 9.80015 16.6473V4.00569C9.80019 3.9204 9.78193 3.8361 9.74661 3.75847C9.71129 3.68084 9.65973 3.61169 9.5954 3.55569C9.22862 3.24213 8.82119 2.97951 8.38415 2.77494ZM18.8721 1.99869C18.6736 1.86562 18.4392 1.79629 18.2001 1.79994C15.6648 1.81119 13.771 2.12657 12.4161 2.77494C11.9791 2.97913 11.5716 3.24124 11.2045 3.55419C11.1403 3.61027 11.0889 3.67945 11.0536 3.75706C11.0184 3.83468 11.0001 3.91894 11.0001 4.00419V16.6466C11.0001 16.6756 11.0087 16.704 11.0247 16.7282C11.0408 16.7523 11.0636 16.7712 11.0904 16.7825C11.1171 16.7938 11.1466 16.7969 11.1751 16.7914C11.2036 16.786 11.2299 16.7723 11.2506 16.7519C12.2133 15.7957 13.9026 14.9962 18.2016 14.9966C18.5199 14.9966 18.8251 14.8701 19.0502 14.6451C19.2752 14.4201 19.4016 14.1148 19.4016 13.7966V2.99657C19.4021 2.79955 19.354 2.60546 19.2617 2.43143C19.1693 2.25739 19.0355 2.10877 18.8721 1.99869Z" fill="#020B23" />
		</g>
		<g id="up-trend" width="16" height="16" viewBox="0 0 16 16" fill="none" xmlns="http://www.w3.org/2000/svg">
			<g clip-path="url(#clip0_3224_450)">
				<path d="M10.8572 4H15.4286V8.57143" stroke="#0AC87E" stroke-width="2" stroke-linecap="round" stroke-linejoin="round" />
				<path d="M15.4287 4L8.97153 10.4571C8.86472 10.5618 8.72111 10.6205 8.57153 10.6205C8.42196 10.6205 8.27835 10.5618 8.17153 10.4571L5.54296 7.82857C5.43614 7.72387 5.29253 7.66522 5.14296 7.66522C4.99339 7.66522 4.84978 7.72387 4.74296 7.82857L0.571533 12" stroke="#0AC87E" stroke-width="2" stroke-linecap="round" stroke-linejoin="round" />
			</g>
			<defs>
				<clipPath id="clip0_3224_450">
					<rect width="16" height="16" fill="white" />
				</clipPath>
			</defs>
		</g>
		<g id="mega-phone" width="20" height="20" viewBox="0 0 20 20" fill="none" xmlns="http://www.w3.org/2000/svg">
			<path d="M16.8669 5.62817C17.712 8.17546 17.712 9.87367 16.8669 12.4209" stroke="#020B23" stroke-width="1.5" stroke-linecap="round" stroke-linejoin="round" />
			<path d="M1.87514 10.8116C1.8752 11.7436 2.6307 12.499 3.56264 12.499L3.54683 16.2426C3.54245 17.2802 4.38261 18.1234 5.42018 18.1229C6.45388 18.1223 7.29158 17.2843 7.29158 16.2505V12.5921H8.33308V5.46655H5.39122C4.2494 5.46655 3.67849 5.46655 3.23275 5.66544C2.71672 5.8957 2.30395 6.3085 2.07373 6.82455C1.87488 7.27029 1.87492 7.8412 1.875 8.983L1.87514 10.8116Z" fill="#020B23" />
			<path d="M9.58325 4.48431C11.6314 2.68975 12.6554 1.79247 13.5281 1.7996C14.1753 1.80489 14.7901 2.08362 15.2206 2.56693C15.801 3.21855 15.801 4.58011 15.801 7.30323V10.6699C15.801 13.3948 15.801 14.7572 15.2109 15.4113C14.7904 15.8774 14.1971 16.1506 13.5696 16.1671C12.6889 16.1903 11.6537 15.3046 9.58325 13.5332V4.48431Z" fill="#020B23" />
		</g>
		<g id="lock" width="20" height="20" viewBox="0 0 20 20" fill="none" xmlns="http://www.w3.org/2000/svg">
			<path d="M5 8.33335V6.66669C5 3.90835 5.83333 1.66669 10 1.66669C14.1667 1.66669 15 3.90835 15 6.66669V8.33335" stroke="#020B23" stroke-width="1.5" stroke-linecap="round" stroke-linejoin="round" />
			<path d="M10.0003 15.4167C11.1509 15.4167 12.0837 14.4839 12.0837 13.3333C12.0837 12.1827 11.1509 11.25 10.0003 11.25C8.84973 11.25 7.91699 12.1827 7.91699 13.3333C7.91699 14.4839 8.84973 15.4167 10.0003 15.4167Z" stroke="#020B23" stroke-width="1.5" stroke-linecap="round" stroke-linejoin="round" />
			<path d="M14.167 18.3333H5.83366C2.50033 18.3333 1.66699 17.5 1.66699 14.1666V12.5C1.66699 9.16665 2.50033 8.33331 5.83366 8.33331H14.167C17.5003 8.33331 18.3337 9.16665 18.3337 12.5V14.1666C18.3337 17.5 17.5003 18.3333 14.167 18.3333Z" stroke="#020B23" stroke-width="1.5" stroke-linecap="round" stroke-linejoin="round" />
		</g>
		<g id="eye-closed" width="20" height="20" viewBox="0 0 20 20" fill="none" xmlns="http://www.w3.org/2000/svg">
			<path d="M12.1083 7.89166L7.8916 12.1083C7.34994 11.5667 7.0166 10.825 7.0166 10C7.0166 8.35 8.34993 7.01666 9.99993 7.01666C10.8249 7.01666 11.5666 7.35 12.1083 7.89166Z" stroke="#020B23" stroke-width="1.5" stroke-linecap="round" stroke-linejoin="round" />
			<path d="M14.8499 4.80834C13.3915 3.70834 11.7249 3.10834 9.99987 3.10834C7.0582 3.10834 4.31654 4.84167 2.4082 7.84167C1.6582 9.01667 1.6582 10.9917 2.4082 12.1667C3.06654 13.2 3.8332 14.0917 4.66654 14.8083" stroke="#020B23" stroke-width="1.5" stroke-linecap="round" stroke-linejoin="round" />
			<path d="M7.0166 16.275C7.9666 16.675 8.97493 16.8917 9.99993 16.8917C12.9416 16.8917 15.6833 15.1583 17.5916 12.1583C18.3416 10.9833 18.3416 9.00834 17.5916 7.83334C17.3166 7.4 17.0166 6.99167 16.7083 6.60834" stroke="#020B23" stroke-width="1.5" stroke-linecap="round" stroke-linejoin="round" />
			<path d="M12.9252 10.5833C12.7085 11.7583 11.7502 12.7166 10.5752 12.9333" stroke="#020B23" stroke-width="1.5" stroke-linecap="round" stroke-linejoin="round" />
			<path d="M7.89199 12.1083L1.66699 18.3333" stroke="#020B23" stroke-width="1.5" stroke-linecap="round" stroke-linejoin="round" />
			<path d="M18.3334 1.66669L12.1084 7.89169" stroke="#020B23" stroke-width="1.5" stroke-linecap="round" stroke-linejoin="round" />
		</g>
		<g id="close" width="32" height="32" viewBox="0 0 32 32" fill="none" xmlns="http://www.w3.org/2000/svg">
			<path d="M23 23L9 9M23 9L9 23" stroke="black" stroke-width="2" stroke-linecap="round" stroke-linejoin="round" />
		</g>
		<g id="text" width="20" height="20" viewBox="0 0 20 20" fill="none" xmlns="http://www.w3.org/2000/svg">
			<path d="M17.5001 6.66667H2.50008C2.27907 6.66667 2.06711 6.57887 1.91083 6.42259C1.75455 6.26631 1.66675 6.05435 1.66675 5.83333C1.66675 5.61232 1.75455 5.40036 1.91083 5.24408C2.06711 5.0878 2.27907 5 2.50008 5H17.5001C17.7211 5 17.9331 5.0878 18.0893 5.24408C18.2456 5.40036 18.3334 5.61232 18.3334 5.83333C18.3334 6.05435 18.2456 6.26631 18.0893 6.42259C17.9331 6.57887 17.7211 6.66667 17.5001 6.66667ZM10.8334 15H2.50008C2.27907 15 2.06711 14.9122 1.91083 14.7559C1.75455 14.5996 1.66675 14.3877 1.66675 14.1667C1.66675 13.9457 1.75455 13.7337 1.91083 13.5774C2.06711 13.4211 2.27907 13.3333 2.50008 13.3333H10.8334C11.0544 13.3333 11.2664 13.4211 11.4227 13.5774C11.5789 13.7337 11.6667 13.9457 11.6667 14.1667C11.6667 14.3877 11.5789 14.5996 11.4227 14.7559C11.2664 14.9122 11.0544 15 10.8334 15ZM17.5001 10.8333H2.50008C2.27907 10.8333 2.06711 10.7455 1.91083 10.5893C1.75455 10.433 1.66675 10.221 1.66675 10C1.66675 9.77899 1.75455 9.56702 1.91083 9.41074C2.06711 9.25446 2.27907 9.16667 2.50008 9.16667H17.5001C17.7211 9.16667 17.9331 9.25446 18.0893 9.41074C18.2456 9.56702 18.3334 9.77899 18.3334 10C18.3334 10.221 18.2456 10.433 18.0893 10.5893C17.9331 10.7455 17.7211 10.8333 17.5001 10.8333Z" fill="#020B23" />
		</g>
		<g id="thumbnail" width="31" height="30" viewBox="0 0 31 30" fill="none" xmlns="http://www.w3.org/2000/svg">
			<path d="M2.83301 7.50012C2.83301 6.17404 3.35979 4.90227 4.29747 3.96459C5.23516 3.02691 6.50693 2.50012 7.83301 2.50012H22.833C24.1591 2.50012 25.4309 3.02691 26.3685 3.96459C27.3062 4.90227 27.833 6.17404 27.833 7.50012V22.5001C27.833 23.8262 27.3062 25.098 26.3685 26.0357C25.4309 26.9733 24.1591 27.5001 22.833 27.5001H7.83301C6.50693 27.5001 5.23516 26.9733 4.29747 26.0357C3.35979 25.098 2.83301 23.8262 2.83301 22.5001V7.50012Z" stroke="#020B23" stroke-width="2.48333" stroke-linecap="round" stroke-linejoin="round" />
			<path d="M10.9583 13.75C12.6841 13.75 14.0833 12.3509 14.0833 10.625C14.0833 8.89911 12.6841 7.5 10.9583 7.5C9.23236 7.5 7.83325 8.89911 7.83325 10.625C7.83325 12.3509 9.23236 13.75 10.9583 13.75Z" stroke="#020B23" stroke-width="2.48333" stroke-linecap="round" stroke-linejoin="round" />
			<path d="M18.4908 15.7765L7.83325 27.5002H22.9995C24.2815 27.5002 25.511 26.991 26.4175 26.0845C27.324 25.178 27.8333 23.9485 27.8333 22.6665V22.5002C27.8333 21.9177 27.6145 21.694 27.2208 21.2627L22.1833 15.769C21.9485 15.5129 21.6629 15.3085 21.3447 15.169C21.0266 15.0294 20.6828 14.9577 20.3353 14.9584C19.9879 14.9591 19.6444 15.0322 19.3268 15.1731C19.0092 15.3139 18.7245 15.5194 18.4908 15.7765V15.7765Z" stroke="#020B23" stroke-width="2.48333" stroke-linecap="round" stroke-linejoin="round" />
		</g>
	</defs>
</svg>
