<svg width="24" height="24" viewBox="0 0 24 24" fill="none" xmlns="http://www.w3.org/2000/svg">
	<defs>
		<g id="search" width="24" height="24" viewBox="0 0 24 24" fill="none" xmlns="http://www.w3.org/2000/svg">
			<path d="M11.5 21C16.7467 21 21 16.7467 21 11.5C21 6.25329 16.7467 2 11.5 2C6.25329 2 2 6.25329 2 11.5C2 16.7467 6.25329 21 11.5 21Z" stroke="currentColor" stroke-width="1.5" stroke-linecap="round" stroke-linejoin="round" />
			<path d="M22 22L20 20" stroke="currentColor" stroke-width="1.5" stroke-linecap="round" stroke-linejoin="round" />
		</g>
		<g id="notification" width="24" height="24" viewBox="0 0 24 24" fill="none" xmlns="http://www.w3.org/2000/svg">
			<path d="M15 18V18.75C15 19.5456 14.6839 20.3087 14.1213 20.8713C13.5587 21.4339 12.7956 21.75 12 21.75C11.2043 21.75 10.4413 21.4339 9.87867 20.8713C9.31606 20.3087 8.99999 19.5456 8.99999 18.75V18M20.0475 16.4733C18.8437 15 17.9939 14.25 17.9939 10.1883C17.9939 6.46875 16.0945 5.14359 14.5312 4.5C14.3236 4.41469 14.1281 4.21875 14.0648 4.00547C13.7906 3.07219 13.0219 2.25 12 2.25C10.9781 2.25 10.2089 3.07266 9.93749 4.00641C9.87421 4.22203 9.67874 4.41469 9.47108 4.5C7.90593 5.14453 6.00842 6.465 6.00842 10.1883C6.00608 14.25 5.15624 15 3.95249 16.4733C3.45374 17.0836 3.89061 18 4.76296 18H19.2417C20.1094 18 20.5434 17.0808 20.0475 16.4733Z" stroke="currentColor" stroke-width="2" stroke-linecap="round" stroke-linejoin="round" />
		</g>
		<g id="caret-down" width="20" height="20" viewBox="0 0 20 20" fill="none" xmlns="http://www.w3.org/2000/svg">
			<path d="M16.9132 8.1633L10.6632 14.4133C10.5762 14.5007 10.4727 14.57 10.3587 14.6174C10.2447 14.6647 10.1226 14.689 9.99918 14.689C9.8758 14.689 9.75362 14.6647 9.63967 14.6174C9.52571 14.57 9.42222 14.5007 9.33512 14.4133L3.08512 8.1633C2.909 7.98718 2.81006 7.74831 2.81006 7.49923C2.81006 7.25016 2.909 7.01129 3.08512 6.83517C3.26124 6.65905 3.50011 6.56011 3.74918 6.56011C3.99826 6.56011 4.23713 6.65905 4.41325 6.83517L9.99997 12.4219L15.5867 6.83439C15.7628 6.65827 16.0017 6.55933 16.2507 6.55933C16.4998 6.55933 16.7387 6.65827 16.9148 6.83439C17.0909 7.01051 17.1899 7.24938 17.1899 7.49845C17.1899 7.74752 17.0909 7.98639 16.9148 8.16252L16.9132 8.1633Z" fill="#121212" fill-opacity="0.3" />
		</g>
		<g id="book" width="21" height="20" viewBox="0 0 21 20" fill="none" xmlns="http://www.w3.org/2000/svg">
			<g clip-path="url(#clip0_3204_317)">
				<path d="M10.5 6.25C11.125 3.78282 13.4856 2.52305 18.625 2.5C18.7072 2.49969 18.7886 2.51565 18.8645 2.54695C18.9405 2.57825 19.0095 2.62427 19.0676 2.68237C19.1257 2.74047 19.1718 2.80949 19.2031 2.88546C19.2344 2.96143 19.2503 3.04284 19.25 3.125V14.375C19.25 14.5408 19.1842 14.6997 19.0669 14.8169C18.9497 14.9342 18.7908 15 18.625 15C13.625 15 11.6934 16.0082 10.5 17.5M10.5 6.25C9.875 3.78282 7.51446 2.52305 2.375 2.5C2.29284 2.49969 2.21143 2.51565 2.13546 2.54695C2.05949 2.57825 1.99047 2.62427 1.93237 2.68237C1.87427 2.74047 1.82825 2.80949 1.79695 2.88546C1.76565 2.96143 1.74969 3.04284 1.75 3.125V14.2996C1.75 14.6856 1.98907 15 2.375 15C7.375 15 9.31368 16.0156 10.5 17.5M10.5 6.25V17.5" stroke="#808591" stroke-width="2" stroke-linecap="round" stroke-linejoin="round" />
			</g>
			<defs>
				<clipPath id="clip0_3204_317">
					<rect width="20" height="20" fill="white" transform="translate(0.5)" />
				</clipPath>
			</defs>
		</g>
		<g id="speaker" width="20" height="20" viewBox="0 0 20 20" fill="none" xmlns="http://www.w3.org/2000/svg">
			<path d="M8.47441 6.01818C8.31607 6.87786 8.16573 8.52289 8.16573 9.39721C8.16573 10.2715 8.20549 11.9448 8.47441 12.7762M8.47441 6.01818L10.2309 4.4792C12.4155 2.56508 13.5078 1.60802 14.4409 1.79389C14.7312 1.85171 15.0043 1.97551 15.239 2.15571C15.9938 2.73507 15.9938 4.18734 15.9938 7.09188V11.6824C15.9938 14.5442 15.9938 15.9752 15.2461 16.5546C15.0135 16.7349 14.7422 16.8597 14.4541 16.9193C13.5276 17.1104 12.4414 16.1805 10.2688 14.3208C9.27085 13.4665 8.52922 12.8295 8.47441 12.7762M8.47441 6.01818C8.09009 5.99129 6.36351 5.99076 4.70243 5.9972C3.32597 6.00254 2.63775 6.00521 2.14459 6.34785C1.95436 6.48003 1.78808 6.64695 1.65665 6.8377C1.31592 7.33219 1.31592 8.02309 1.31592 9.40492C1.31592 10.7932 1.31592 11.4873 1.65871 11.9828C1.79095 12.1739 1.95811 12.341 2.14937 12.473C2.6452 12.8153 3.33683 12.8145 4.72007 12.8132C6.37572 12.8115 8.09144 12.803 8.47441 12.7762M3.27325 12.8092L3.25198 17.7593C3.24854 18.5597 3.89661 19.2102 4.69698 19.2098C5.49433 19.2094 6.14048 18.5629 6.14048 17.7655V12.8097M17.9508 5.46453C18.9293 8.41402 18.9293 10.3804 17.9508 13.3298" stroke="#020B23" stroke-opacity="0.5" stroke-width="1.5" stroke-linecap="round" stroke-linejoin="round" />
		</g>
		<g id="prayer" width="21" height="20" viewBox="0 0 21 20" fill="none" xmlns="http://www.w3.org/2000/svg">
			<path d="M9.93 7.66996C9.97 7.77996 10 7.87996 10 7.99996V13.22C10 13.72 9.81 14.2 9.47 14.57L6.68 17.62L3.28 14.22L4.5 13L7.3 0.859956C7.36104 0.592858 7.51837 0.357623 7.74192 0.199213C7.96547 0.0408038 8.23955 -0.0296684 8.51178 0.00126704C8.78401 0.0322025 9.0353 0.162376 9.2176 0.366905C9.39991 0.571434 9.50045 0.835973 9.5 1.10996V6.06996C9.33696 6.0256 9.16895 6.00207 9 5.99996C7.9 5.99996 7 6.89996 7 7.99996V11C7 11.28 7.22 11.5 7.5 11.5C7.78 11.5 8 11.28 8 11V7.99996C8 7.44996 8.45 6.99996 9 6.99996C9.19 6.99996 9.35 7.06996 9.5 7.15996C9.62 7.22996 9.71 7.31996 9.8 7.41996C9.83 7.45996 9.86 7.49996 9.88 7.54996C9.9 7.58996 9.92 7.62996 9.93 7.66996ZM0.5 17L4.5 20L5.67 18.73L2.22 15.28L0.5 17ZM16.5 13L13.7 0.859956C13.639 0.592858 13.4816 0.357623 13.2581 0.199213C13.0345 0.0408038 12.7604 -0.0296684 12.4882 0.00126704C12.216 0.0322025 11.9647 0.162376 11.7824 0.366905C11.6001 0.571434 11.4996 0.835973 11.5 1.10996V6.06996C11.66 6.02996 11.83 5.99996 12 5.99996C13.1 5.99996 14 6.89996 14 7.99996V11C14 11.28 13.78 11.5 13.5 11.5C13.22 11.5 13 11.28 13 11V7.99996C13 7.44996 12.55 6.99996 12 6.99996C11.81 6.99996 11.65 7.06996 11.5 7.15996C11.38 7.22996 11.29 7.31996 11.21 7.41996C11.18 7.45996 11.14 7.49996 11.12 7.54996C11.1 7.58996 11.08 7.62996 11.07 7.66996C11.03 7.77996 11 7.87996 11 7.99996V13.22C11 13.72 11.19 14.2 11.53 14.57L14.32 17.62L17.72 14.22L16.5 13ZM18.78 15.28L15.33 18.73L16.5 20L20.5 17L18.78 15.28Z" fill="#2967B3" />
		</g>
		<g id="check" width="13" height="14" viewBox="0 0 13 14" fill="none" xmlns="http://www.w3.org/2000/svg">
			<path d="M11.6559 4.65572L5.34015 10.9715C5.28514 11.0267 5.21978 11.0705 5.14781 11.1004C5.07584 11.1303 4.99867 11.1457 4.92074 11.1457C4.84281 11.1457 4.76565 11.1303 4.69368 11.1004C4.62171 11.0705 4.55634 11.0267 4.50134 10.9715L1.73818 8.20835C1.6831 8.15327 1.63941 8.08789 1.6096 8.01592C1.57979 7.94396 1.56445 7.86683 1.56445 7.78894C1.56445 7.71105 1.57979 7.63392 1.6096 7.56196C1.63941 7.49 1.6831 7.42461 1.73818 7.36954C1.79325 7.31446 1.85864 7.27077 1.9306 7.24096C2.00257 7.21115 2.07969 7.19581 2.15759 7.19581C2.23548 7.19581 2.31261 7.21115 2.38457 7.24096C2.45653 7.27077 2.52192 7.31446 2.57699 7.36954L4.92124 9.71378L10.8181 3.81789C10.9293 3.70666 11.0802 3.64417 11.2375 3.64417C11.3948 3.64417 11.5457 3.70666 11.6569 3.81789C11.7682 3.92912 11.8307 4.07999 11.8307 4.2373C11.8307 4.39461 11.7682 4.54547 11.6569 4.65671L11.6559 4.65572Z" fill="white" />
		</g>
		<g id="ellipses" width="25" height="26" viewBox="0 0 25 26" fill="none" xmlns="http://www.w3.org/2000/svg">
			<path d="M18.4854 11.5524C18.7821 11.5548 19.0713 11.6452 19.3167 11.812C19.562 11.9788 19.7523 12.2147 19.8636 12.4897C19.9748 12.7647 20.0021 13.0666 19.9418 13.357C19.8815 13.6475 19.7365 13.9136 19.525 14.1217C19.3135 14.3297 19.045 14.4704 18.7536 14.5259C18.4622 14.5813 18.1608 14.5492 17.8877 14.4334C17.6145 14.3176 17.3818 14.1234 17.2191 13.8754C17.0563 13.6274 16.9707 13.3366 16.9731 13.04C16.9764 12.6422 17.1376 12.262 17.4212 11.983C17.7048 11.704 18.0876 11.5491 18.4854 11.5524ZM13.5982 13.0122C13.6007 12.7156 13.5151 12.4249 13.3523 12.1768C13.1895 11.9288 12.9568 11.7346 12.6837 11.6189C12.4105 11.5031 12.1092 11.4709 11.8178 11.5264C11.5263 11.5819 11.2579 11.7225 11.0464 11.9306C10.8349 12.1386 10.6898 12.4047 10.6296 12.6952C10.5693 12.9857 10.5965 13.2875 10.7078 13.5625C10.8191 13.8375 11.0094 14.0734 11.2547 14.2402C11.5 14.4071 11.7893 14.4974 12.086 14.4999C12.4838 14.5031 12.8666 14.3482 13.1502 14.0693C13.4338 13.7903 13.595 13.4101 13.5982 13.0122ZM7.22345 12.9598C7.22589 12.6632 7.1403 12.3725 6.97751 12.1244C6.81472 11.8764 6.58205 11.6822 6.3089 11.5665C6.03575 11.4507 5.73441 11.4185 5.44297 11.474C5.15153 11.5295 4.88309 11.6701 4.6716 11.8782C4.4601 12.0862 4.31505 12.3523 4.25478 12.6428C4.19451 12.9333 4.22174 13.2351 4.33301 13.5101C4.44429 13.7851 4.63461 14.021 4.87992 14.1878C5.12523 14.3547 5.41451 14.445 5.71117 14.4475C6.10898 14.4507 6.4918 14.2958 6.77541 14.0169C7.05901 13.7379 7.22018 13.3577 7.22345 12.9598Z" fill="#020B23" />
		</g>
		<g id="like" width="20" height="20" viewBox="0 0 20 20" xmlns="http://www.w3.org/2000/svg">
			<path d="M1.875 8.85421V15.7292C1.875 16.362 2.38801 16.875 3.02083 16.875C3.65366 16.875 4.16667 16.362 4.16667 15.7292V8.85421C4.16667 8.22138 3.65366 7.70837 3.02083 7.70837C2.38801 7.70837 1.875 8.22138 1.875 8.85421Z" stroke-width="1" />
			<path d="M12.7078 6.88063C13.0225 5.78067 13.0218 4.83466 12.7055 3.84195C12.5193 3.25742 11.9493 2.91663 11.3482 2.91663C10.9272 2.91663 10.5268 3.09684 10.3569 3.49067C10.0241 4.26217 9.46217 5.84859 8.64308 6.68629C7.42576 7.93131 6.53161 8.65496 5 9.18471V15.1036L5.62448 15.6921C6.08546 16.1265 6.31595 16.3437 6.59837 16.4979C6.68853 16.547 6.79256 16.5955 6.88828 16.6328C7.18806 16.7497 7.48763 16.7845 8.08677 16.8541C8.96398 16.9561 10.0649 17.0663 10.8333 17.0813C11.4113 17.0926 12.0917 17.0545 12.7488 16.9976C13.8196 16.9049 14.355 16.8585 14.8544 16.5554C15.008 16.4622 15.1784 16.3299 15.3068 16.2041C15.7241 15.7953 15.9175 15.2425 16.3042 14.137L17.2995 11.2918C17.8204 9.80263 16.7837 8.22552 15.2102 8.11306L13.5567 7.99488C12.9959 7.95481 12.5976 7.43186 12.7078 6.88063Z" stroke-width="1" />
		</g>
		<g id="comment" width="20" height="20" viewBox="0 0 20 20" fill="none" xmlns="http://www.w3.org/2000/svg">
			<path d="M10.3125 1.5625C8.15831 1.56477 6.09301 2.42153 4.56977 3.94477C3.04653 5.46801 2.18977 7.53331 2.1875 9.6875V16.2758C2.18791 16.6832 2.34995 17.0738 2.63805 17.3619C2.92615 17.65 3.31678 17.8121 3.72422 17.8125H10.3125C12.4674 17.8125 14.534 16.9565 16.0577 15.4327C17.5815 13.909 18.4375 11.8424 18.4375 9.6875C18.4375 7.53262 17.5815 5.46599 16.0577 3.94226C14.534 2.41852 12.4674 1.5625 10.3125 1.5625ZM10.3125 15.9375H4.0625V9.6875C4.0625 8.45137 4.42906 7.24299 5.11581 6.21519C5.80257 5.18738 6.77869 4.3863 7.92073 3.91325C9.06277 3.44021 10.3194 3.31643 11.5318 3.55759C12.7442 3.79875 13.8578 4.394 14.7319 5.26808C15.606 6.14216 16.2013 7.2558 16.4424 8.46819C16.6836 9.68057 16.5598 10.9372 16.0867 12.0793C15.6137 13.2213 14.8126 14.1974 13.7848 14.8842C12.757 15.5709 11.5486 15.9375 10.3125 15.9375ZM9.6875 10C9.6875 10.2472 9.61419 10.4889 9.47684 10.6945C9.33949 10.9 9.14426 11.0602 8.91585 11.1548C8.68745 11.2495 8.43611 11.2742 8.19364 11.226C7.95116 11.1778 7.72843 11.0587 7.55362 10.8839C7.3788 10.7091 7.25975 10.4863 7.21152 10.2439C7.16329 10.0014 7.18804 9.75005 7.28265 9.52165C7.37726 9.29324 7.53748 9.09801 7.74304 8.96066C7.9486 8.82331 8.19027 8.75 8.4375 8.75C8.76902 8.75 9.08696 8.8817 9.32138 9.11612C9.5558 9.35054 9.6875 9.66848 9.6875 10ZM13.4375 10C13.4375 10.2472 13.3642 10.4889 13.2268 10.6945C13.0895 10.9 12.8943 11.0602 12.6659 11.1548C12.4374 11.2495 12.1861 11.2742 11.9436 11.226C11.7012 11.1778 11.4784 11.0587 11.3036 10.8839C11.1288 10.7091 11.0097 10.4863 10.9615 10.2439C10.9133 10.0014 10.938 9.75005 11.0327 9.52165C11.1273 9.29324 11.2875 9.09801 11.493 8.96066C11.6986 8.82331 11.9403 8.75 12.1875 8.75C12.519 8.75 12.837 8.8817 13.0714 9.11612C13.3058 9.35054 13.4375 9.66848 13.4375 10Z" fill="#020B23" />
		</g>
		<g id="praying" width="20" height="20" viewBox="0 0 20 20" fill="none" xmlns="http://www.w3.org/2000/svg">
			<path d="M18.3843 14.0625L15.5531 11.2305L12.7046 1.83282C12.6237 1.56522 12.478 1.32172 12.2805 1.12389C12.0829 0.926049 11.8396 0.779985 11.5722 0.69863C11.3047 0.617276 11.0213 0.603143 10.747 0.657483C10.4728 0.711823 10.2162 0.832959 9.99996 1.01016C9.78372 0.832959 9.52711 0.711823 9.25287 0.657483C8.97863 0.603143 8.69522 0.617276 8.42775 0.69863C8.16028 0.779985 7.917 0.926049 7.71946 1.12389C7.52192 1.32172 7.37622 1.56522 7.29527 1.83282L4.44683 11.2313L1.61558 14.0625C1.38134 14.2969 1.24976 14.6147 1.24976 14.9461C1.24976 15.2775 1.38134 15.5953 1.61558 15.8297L4.16949 18.3836C4.28557 18.4997 4.42338 18.5918 4.57505 18.6546C4.72673 18.7175 4.8893 18.7498 5.05347 18.7498C5.21765 18.7498 5.38022 18.7175 5.53189 18.6546C5.68357 18.5918 5.82138 18.4997 5.93746 18.3836L9.70933 14.6094C9.81384 14.5045 9.91094 14.3925 9.99996 14.2742C10.089 14.3925 10.1861 14.5045 10.2906 14.6094L14.0625 18.3844C14.1785 18.5005 14.3163 18.5926 14.468 18.6554C14.6197 18.7183 14.7823 18.7506 14.9464 18.7506C15.1106 18.7506 15.2732 18.7183 15.4249 18.6554C15.5765 18.5926 15.7143 18.5005 15.8304 18.3844L18.3843 15.8305C18.5004 15.7144 18.5925 15.5766 18.6554 15.4249C18.7182 15.2732 18.7505 15.1107 18.7505 14.9465C18.7505 14.7823 18.7182 14.6197 18.6554 14.4681C18.5925 14.3164 18.5004 14.1786 18.3843 14.0625ZM9.37496 12.4023C9.37621 12.6489 9.32851 12.8932 9.23464 13.1212C9.14076 13.3492 9.00257 13.5563 8.82808 13.7305L6.92808 15.625L4.37496 13.0719L5.44136 12.0047C5.51414 11.9319 5.56781 11.8423 5.59761 11.7438L8.48824 2.19532C8.51756 2.08907 8.58473 1.99721 8.67709 1.93705C8.76945 1.8769 8.88062 1.8526 8.98965 1.86874C9.09869 1.88488 9.19805 1.94034 9.26902 2.02467C9.34 2.109 9.37768 2.21638 9.37496 2.32657V12.4023ZM13.0812 15.6352L11.1718 13.7281C10.9973 13.5539 10.8592 13.3469 10.7653 13.1189C10.6714 12.8909 10.6237 12.6466 10.625 12.4V2.32188C10.625 2.21363 10.6639 2.109 10.7346 2.02704C10.8053 1.94508 10.9031 1.89124 11.0102 1.87534C11.1172 1.85943 11.2265 1.88252 11.3179 1.94039C11.4094 1.99826 11.4771 2.08707 11.5086 2.19063L14.3992 11.7391C14.429 11.8376 14.4827 11.9272 14.5554 12L15.6875 13.132L13.0812 15.6352Z" fill="#020B23" />
		</g>
	</defs>
</svg>
