<svg width="24" height="24" viewBox="0 0 24 24" fill="none" xmlns="http://www.w3.org/2000/svg">
	<defs>
		<g id="search" width="24" height="24" viewBox="0 0 24 24" fill="none" xmlns="http://www.w3.org/2000/svg">
			<path d="M11.5 21C16.7467 21 21 16.7467 21 11.5C21 6.25329 16.7467 2 11.5 2C6.25329 2 2 6.25329 2 11.5C2 16.7467 6.25329 21 11.5 21Z" stroke="currentColor" stroke-width="1.5" stroke-linecap="round" stroke-linejoin="round" />
			<path d="M22 22L20 20" stroke="currentColor" stroke-width="1.5" stroke-linecap="round" stroke-linejoin="round" />
		</g>
		<g id="notification" width="24" height="24" viewBox="0 0 24 24" fill="none" xmlns="http://www.w3.org/2000/svg">
			<path d="M15 18V18.75C15 19.5456 14.6839 20.3087 14.1213 20.8713C13.5587 21.4339 12.7956 21.75 12 21.75C11.2043 21.75 10.4413 21.4339 9.87867 20.8713C9.31606 20.3087 8.99999 19.5456 8.99999 18.75V18M20.0475 16.4733C18.8437 15 17.9939 14.25 17.9939 10.1883C17.9939 6.46875 16.0945 5.14359 14.5312 4.5C14.3236 4.41469 14.1281 4.21875 14.0648 4.00547C13.7906 3.07219 13.0219 2.25 12 2.25C10.9781 2.25 10.2089 3.07266 9.93749 4.00641C9.87421 4.22203 9.67874 4.41469 9.47108 4.5C7.90593 5.14453 6.00842 6.465 6.00842 10.1883C6.00608 14.25 5.15624 15 3.95249 16.4733C3.45374 17.0836 3.89061 18 4.76296 18H19.2417C20.1094 18 20.5434 17.0808 20.0475 16.4733Z" stroke="currentColor" stroke-width="2" stroke-linecap="round" stroke-linejoin="round" />
		</g>
		<g id="caret-down" width="20" height="20" viewBox="0 0 20 20" fill="none" xmlns="http://www.w3.org/2000/svg">
			<path d="M16.9132 8.1633L10.6632 14.4133C10.5762 14.5007 10.4727 14.57 10.3587 14.6174C10.2447 14.6647 10.1226 14.689 9.99918 14.689C9.8758 14.689 9.75362 14.6647 9.63967 14.6174C9.52571 14.57 9.42222 14.5007 9.33512 14.4133L3.08512 8.1633C2.909 7.98718 2.81006 7.74831 2.81006 7.49923C2.81006 7.25016 2.909 7.01129 3.08512 6.83517C3.26124 6.65905 3.50011 6.56011 3.74918 6.56011C3.99826 6.56011 4.23713 6.65905 4.41325 6.83517L9.99997 12.4219L15.5867 6.83439C15.7628 6.65827 16.0017 6.55933 16.2507 6.55933C16.4998 6.55933 16.7387 6.65827 16.9148 6.83439C17.0909 7.01051 17.1899 7.24938 17.1899 7.49845C17.1899 7.74752 17.0909 7.98639 16.9148 8.16252L16.9132 8.1633Z" fill="#121212" fill-opacity="0.3" />
		</g>
		<g id="book" width="21" height="20" viewBox="0 0 21 20" fill="none" xmlns="http://www.w3.org/2000/svg">
			<g clip-path="url(#clip0_3204_317)">
				<path d="M10.5 6.25C11.125 3.78282 13.4856 2.52305 18.625 2.5C18.7072 2.49969 18.7886 2.51565 18.8645 2.54695C18.9405 2.57825 19.0095 2.62427 19.0676 2.68237C19.1257 2.74047 19.1718 2.80949 19.2031 2.88546C19.2344 2.96143 19.2503 3.04284 19.25 3.125V14.375C19.25 14.5408 19.1842 14.6997 19.0669 14.8169C18.9497 14.9342 18.7908 15 18.625 15C13.625 15 11.6934 16.0082 10.5 17.5M10.5 6.25C9.875 3.78282 7.51446 2.52305 2.375 2.5C2.29284 2.49969 2.21143 2.51565 2.13546 2.54695C2.05949 2.57825 1.99047 2.62427 1.93237 2.68237C1.87427 2.74047 1.82825 2.80949 1.79695 2.88546C1.76565 2.96143 1.74969 3.04284 1.75 3.125V14.2996C1.75 14.6856 1.98907 15 2.375 15C7.375 15 9.31368 16.0156 10.5 17.5M10.5 6.25V17.5" stroke="#808591" stroke-width="2" stroke-linecap="round" stroke-linejoin="round" />
			</g>
			<defs>
				<clipPath id="clip0_3204_317">
					<rect width="20" height="20" fill="white" transform="translate(0.5)" />
				</clipPath>
			</defs>
		</g>
		<g id="speaker" width="20" height="20" viewBox="0 0 20 20" fill="none" xmlns="http://www.w3.org/2000/svg">
			<path d="M8.47441 6.01818C8.31607 6.87786 8.16573 8.52289 8.16573 9.39721C8.16573 10.2715 8.20549 11.9448 8.47441 12.7762M8.47441 6.01818L10.2309 4.4792C12.4155 2.56508 13.5078 1.60802 14.4409 1.79389C14.7312 1.85171 15.0043 1.97551 15.239 2.15571C15.9938 2.73507 15.9938 4.18734 15.9938 7.09188V11.6824C15.9938 14.5442 15.9938 15.9752 15.2461 16.5546C15.0135 16.7349 14.7422 16.8597 14.4541 16.9193C13.5276 17.1104 12.4414 16.1805 10.2688 14.3208C9.27085 13.4665 8.52922 12.8295 8.47441 12.7762M8.47441 6.01818C8.09009 5.99129 6.36351 5.99076 4.70243 5.9972C3.32597 6.00254 2.63775 6.00521 2.14459 6.34785C1.95436 6.48003 1.78808 6.64695 1.65665 6.8377C1.31592 7.33219 1.31592 8.02309 1.31592 9.40492C1.31592 10.7932 1.31592 11.4873 1.65871 11.9828C1.79095 12.1739 1.95811 12.341 2.14937 12.473C2.6452 12.8153 3.33683 12.8145 4.72007 12.8132C6.37572 12.8115 8.09144 12.803 8.47441 12.7762M3.27325 12.8092L3.25198 17.7593C3.24854 18.5597 3.89661 19.2102 4.69698 19.2098C5.49433 19.2094 6.14048 18.5629 6.14048 17.7655V12.8097M17.9508 5.46453C18.9293 8.41402 18.9293 10.3804 17.9508 13.3298" stroke="#020B23" stroke-opacity="0.5" stroke-width="1.5" stroke-linecap="round" stroke-linejoin="round" />
		</g>
		<g id="prayer" width="21" height="20" viewBox="0 0 21 20" fill="none" xmlns="http://www.w3.org/2000/svg">
			<path d="M9.93 7.66996C9.97 7.77996 10 7.87996 10 7.99996V13.22C10 13.72 9.81 14.2 9.47 14.57L6.68 17.62L3.28 14.22L4.5 13L7.3 0.859956C7.36104 0.592858 7.51837 0.357623 7.74192 0.199213C7.96547 0.0408038 8.23955 -0.0296684 8.51178 0.00126704C8.78401 0.0322025 9.0353 0.162376 9.2176 0.366905C9.39991 0.571434 9.50045 0.835973 9.5 1.10996V6.06996C9.33696 6.0256 9.16895 6.00207 9 5.99996C7.9 5.99996 7 6.89996 7 7.99996V11C7 11.28 7.22 11.5 7.5 11.5C7.78 11.5 8 11.28 8 11V7.99996C8 7.44996 8.45 6.99996 9 6.99996C9.19 6.99996 9.35 7.06996 9.5 7.15996C9.62 7.22996 9.71 7.31996 9.8 7.41996C9.83 7.45996 9.86 7.49996 9.88 7.54996C9.9 7.58996 9.92 7.62996 9.93 7.66996ZM0.5 17L4.5 20L5.67 18.73L2.22 15.28L0.5 17ZM16.5 13L13.7 0.859956C13.639 0.592858 13.4816 0.357623 13.2581 0.199213C13.0345 0.0408038 12.7604 -0.0296684 12.4882 0.00126704C12.216 0.0322025 11.9647 0.162376 11.7824 0.366905C11.6001 0.571434 11.4996 0.835973 11.5 1.10996V6.06996C11.66 6.02996 11.83 5.99996 12 5.99996C13.1 5.99996 14 6.89996 14 7.99996V11C14 11.28 13.78 11.5 13.5 11.5C13.22 11.5 13 11.28 13 11V7.99996C13 7.44996 12.55 6.99996 12 6.99996C11.81 6.99996 11.65 7.06996 11.5 7.15996C11.38 7.22996 11.29 7.31996 11.21 7.41996C11.18 7.45996 11.14 7.49996 11.12 7.54996C11.1 7.58996 11.08 7.62996 11.07 7.66996C11.03 7.77996 11 7.87996 11 7.99996V13.22C11 13.72 11.19 14.2 11.53 14.57L14.32 17.62L17.72 14.22L16.5 13ZM18.78 15.28L15.33 18.73L16.5 20L20.5 17L18.78 15.28Z" fill="#2967B3" />
		</g>
		<g id="check" width="13" height="14" viewBox="0 0 13 14" fill="none" xmlns="http://www.w3.org/2000/svg">
			<path d="M11.6559 4.65572L5.34015 10.9715C5.28514 11.0267 5.21978 11.0705 5.14781 11.1004C5.07584 11.1303 4.99867 11.1457 4.92074 11.1457C4.84281 11.1457 4.76565 11.1303 4.69368 11.1004C4.62171 11.0705 4.55634 11.0267 4.50134 10.9715L1.73818 8.20835C1.6831 8.15327 1.63941 8.08789 1.6096 8.01592C1.57979 7.94396 1.56445 7.86683 1.56445 7.78894C1.56445 7.71105 1.57979 7.63392 1.6096 7.56196C1.63941 7.49 1.6831 7.42461 1.73818 7.36954C1.79325 7.31446 1.85864 7.27077 1.9306 7.24096C2.00257 7.21115 2.07969 7.19581 2.15759 7.19581C2.23548 7.19581 2.31261 7.21115 2.38457 7.24096C2.45653 7.27077 2.52192 7.31446 2.57699 7.36954L4.92124 9.71378L10.8181 3.81789C10.9293 3.70666 11.0802 3.64417 11.2375 3.64417C11.3948 3.64417 11.5457 3.70666 11.6569 3.81789C11.7682 3.92912 11.8307 4.07999 11.8307 4.2373C11.8307 4.39461 11.7682 4.54547 11.6569 4.65671L11.6559 4.65572Z" fill="white" />
		</g>
	</defs>
</svg>
